<svg xmlns="http://www.w3.org/2000/svg" xmlns:svg="http://www.w3.org/2000/svg" id="Layer_1" width="960" height="560" x="0" y="0" enable-background="new 0 0 960 560" version="1.1" viewBox="0 0 960 560" xml:space="preserve"><metadata id="metadata25"/><g id="g8"><path id="path2" d="m 361.497,380.881 c -71.548,0 -123.956,-48.398 -123.956,-110.398 0,-62.799 51.041,-106.398 123.956,-106.398 h 75.649 v 216.796 z m 0,-163.997 c -36.913,0 -63.8,24 -63.8,56.399 0,31.199 25.976,54.799 63.8,54.799 h 15.495 V 216.884 Z" style="fill:#e95f26"/><path id="path4" d="m 501.17,476.08 v -54.399 h 30.533 c 31.445,0 53.775,-6.8 67.902,-20.399 5.924,-5.6 10.482,-12.4 13.672,-20.4 h -7.748 c -71.547,0 -123.955,-48.398 -123.955,-110.398 0,-62.799 51.041,-106.398 123.955,-106.398 h 77.473 v 171.198 c 0,96.398 -52.408,140.798 -151.299,140.798 H 501.17 Z M 605.529,216.884 c -36.912,0 -63.801,24 -63.801,56.399 0,31.199 25.977,54.799 63.801,54.799 h 15.496 V 216.884 Z" style="fill:#e95f26"/><path id="path6" d="m 851.563,380.881 c -71.547,0 -123.955,-48.398 -123.955,-110.398 0,-62.799 51.041,-106.398 123.955,-106.398 h 75.65 V 305.284 H 798.699 c 10.938,13.999 29.623,22.799 52.863,22.799 h 75.65 v 52.799 h -75.649 z m 15.039,-163.997 h -15.039 c -27.799,0 -49.672,13.6 -59.242,34 h 74.281 z" style="fill:#e95f26"/></g><g id="g18"><path id="path10" fill="#E95F26" fill-rule="evenodd" d="M75.55,121.257h185.104L131.216,263.001l130.409,142.812H75.55 c-18.451,0-33.55-16.534-33.55-36.743V157.999C42,137.79,57.099,121.257,75.55,121.257z" clip-rule="evenodd"/><polygon id="polygon12" fill="#EF8560" fill-rule="evenodd" points="242.118 121.257 260.653 121.257 131.216 263.001 168.183 303.481 143.771 335.31 74.009 325.905" clip-rule="evenodd"/><path id="path14" fill="#B7411D" fill-rule="evenodd" d="M131.216,263.001l130.409,142.812H75.55 c-7.929,0-15.233-3.055-20.991-8.137c-3.033-5.313-5.599-12.164-6.422-20.741C45.269,346.999,112.701,284.084,131.216,263.001z" clip-rule="evenodd"/><path id="path16" fill="#8C2E18" fill-rule="evenodd" d="M131.216,263.001l17.798,19.491 c-26.722,21.078-64.982,52.25-79.739,69.159c-23.557,26.985-10.956,48.77-10.825,48.99c-1.364-0.89-2.663-1.88-3.893-2.966 c-3.033-5.313-5.599-12.164-6.422-20.741C45.269,346.999,112.701,284.084,131.216,263.001z" clip-rule="evenodd"/></g></svg>